<svg width="77" height="20" viewBox="0 0 77 20" fill="none" xmlns="http://www.w3.org/2000/svg">
<g clip-path="url(#clip0_104_23)">
<path d="M30.2033 11.2977L34.4264 16.5333H31.0917L27.3333 11.7249V16.5333H24.5999V2.7556H27.3333V10.8569L30.8047 6.88885H34.2896L30.2033 11.2977V11.2977ZM19.27 6.61338C18.6715 6.62241 18.0841 6.77753 17.5581 7.06546C17.0321 7.35339 16.5832 7.76555 16.2497 8.26664V6.88885H13.6667V16.5333H16.4V12.028C16.3641 11.701 16.3953 11.37 16.4918 11.0557C16.5882 10.7414 16.7478 10.4505 16.9607 10.201C17.1735 9.95159 17.4349 9.74898 17.7288 9.60581C18.0226 9.46263 18.3425 9.38197 18.6686 9.36882C20.254 9.36882 20.5 10.9395 20.5 12.028V16.5333H23.2334V11.4217C23.2334 8.39067 22.2356 6.61338 19.3247 6.61338H19.27V6.61338ZM43.7333 11.9315C43.7437 12.1335 43.7437 12.3358 43.7333 12.5378H36.5583V12.6342C36.6747 13.2088 36.9905 13.7227 37.4488 14.0837C37.9072 14.4448 38.4782 14.6294 39.0594 14.6044C39.5204 14.6246 39.9807 14.5509 40.4128 14.3875C40.8449 14.2242 41.2399 13.9746 41.574 13.6538L43.3917 15.0316C42.8156 15.6243 42.1227 16.0887 41.3576 16.3948C40.5926 16.7009 39.7724 16.842 38.9499 16.8089C38.2688 16.8523 37.5864 16.7478 36.9488 16.5026C36.3111 16.2573 35.7331 15.8769 35.2538 15.3872C34.7745 14.8974 34.405 14.3096 34.1703 13.6636C33.9356 13.0175 33.8412 12.3282 33.8934 11.6422C33.8794 10.965 34.0039 10.2921 34.2591 9.66556C34.5144 9.03899 34.8949 8.47214 35.3771 8.00034C35.8592 7.52854 36.4325 7.16191 37.0613 6.92328C37.6901 6.68466 38.361 6.57917 39.032 6.61338C41.6014 6.61338 43.7333 8.44582 43.7333 11.9315ZM41.1914 10.7466C41.1813 10.4737 41.1163 10.2057 41.0001 9.959C40.884 9.71227 40.7193 9.49195 40.516 9.31148C40.3127 9.13101 40.0751 8.99416 39.8176 8.90928C39.5601 8.82439 39.2882 8.79324 39.0184 8.81773C37.8166 8.68678 36.7282 9.54016 36.5583 10.7466H41.1914ZM2.73338 2.7556H0V16.5333H8.19998V13.778H2.73338V2.7556ZM51.9334 2.7556H54.6666V16.5333H52.0836V15.5688C51.7556 15.9762 51.3376 16.3006 50.863 16.5159C50.3884 16.7312 49.8704 16.8316 49.3504 16.8089C48.7151 16.7925 48.0899 16.6452 47.5132 16.3762C46.9364 16.1072 46.4204 15.7222 45.9967 15.2447C45.573 14.7672 45.2506 14.2075 45.0494 13.5998C44.8482 12.9921 44.7724 12.3494 44.8267 11.7111C44.7622 11.0719 44.8303 10.4261 45.0268 9.81493C45.2234 9.20374 45.5439 8.64047 45.9681 8.16098C46.3923 7.68148 46.9109 7.29626 47.4908 7.02982C48.0708 6.76338 48.6994 6.62156 49.3366 6.61338C49.8113 6.59241 50.2854 6.66689 50.7312 6.83247C51.177 6.99805 51.5857 7.25142 51.9334 7.57782V2.7556V2.7556ZM52.1383 11.7111C52.1813 11.3929 52.1561 11.0692 52.0645 10.7617C51.9728 10.4542 51.8168 10.1701 51.607 9.92851C51.3972 9.68694 51.1384 9.49355 50.8481 9.36136C50.5579 9.22917 50.2429 9.16127 49.9244 9.16222C48.6169 9.25791 47.6262 10.3914 47.6967 11.7111C47.6262 13.0307 48.6169 14.1644 49.9244 14.2601C50.2429 14.261 50.5579 14.1931 50.8482 14.0609C51.1384 13.9287 51.3972 13.7353 51.607 13.4937C51.8169 13.2522 51.9729 12.968 52.0645 12.6605C52.1562 12.353 52.1813 12.0292 52.1383 11.7111V11.7111ZM10.9334 2.47998C10.4938 2.48626 10.073 2.66044 9.75592 2.96736C9.43883 3.27428 9.24907 3.69106 9.22496 4.13355C9.22496 5.08458 9.98984 5.85568 10.9334 5.85568C11.8769 5.85568 12.6415 5.08443 12.6415 4.13355C12.6173 3.69111 12.4276 3.27439 12.1105 2.96751C11.7934 2.66062 11.3727 2.48644 10.9332 2.48013L10.9334 2.47998ZM9.56667 16.5333H12.3V6.88885H9.56667V16.5333ZM76.5333 1.3778V17.9111C76.5333 18.2765 76.3893 18.627 76.133 18.8853C75.8767 19.1437 75.5291 19.2889 75.1666 19.2889H58.7667C58.4042 19.2889 58.0566 19.1437 57.8003 18.8853C57.544 18.627 57.4 18.2765 57.4 17.9111V1.3778C57.4 1.01238 57.544 0.661936 57.8003 0.403548C58.0566 0.145161 58.4042 0 58.7667 0L75.1666 0C75.5291 0 75.8767 0.145161 76.133 0.403548C76.3893 0.661936 76.5333 1.01238 76.5333 1.3778V1.3778ZM62.8666 6.88885H60.1334V16.5333H62.8666V6.88885ZM63.2083 4.1334C63.2083 3.18221 62.4434 2.41111 61.5001 2.41111C60.5565 2.41111 59.7917 3.18221 59.7917 4.1334C59.7917 5.08443 60.5565 5.85553 61.5001 5.85553C62.4434 5.85553 63.2083 5.08443 63.2083 4.1334V4.1334ZM73.8 11.4217C73.8 8.39067 72.8023 6.61338 69.8914 6.61338C69.2836 6.61343 68.6852 6.76427 68.1489 7.05259C67.6126 7.34092 67.1549 7.75786 66.8163 8.26664V6.88885H64.2333V16.5333H66.9667V12.028C66.9308 11.701 66.962 11.37 67.0585 11.0557C67.155 10.7414 67.3146 10.4505 67.5274 10.201C67.7402 9.95159 68.0016 9.74898 68.2955 9.60581C68.5893 9.46263 68.9092 9.38197 69.2353 9.36882C70.8207 9.36882 71.0667 10.9395 71.0667 12.028V16.5333H73.8V11.4217Z" fill="#0A66C2"/>
</g>
<defs>
<clipPath id="clip0_104_23">
<rect width="76.5333" height="19.2889" fill="white"/>
</clipPath>
</defs>
</svg>
