<svg width="193" height="161" viewBox="0 0 193 161" fill="none" xmlns="http://www.w3.org/2000/svg">
<g clip-path="url(#clip0_133_118)">
<path d="M6.5 110C15.7582 110 24.9257 108.564 33.4792 105.775C42.0326 102.986 49.8045 98.8981 56.351 93.7444C62.8976 88.5908 68.0905 82.4725 71.6335 75.7389C75.1765 69.0054 77 61.7884 77 54.5L6.5 54.5V110Z" fill="#1F2146"/>
<path d="M186 98C176.414 98 166.921 99.4743 158.064 102.339C149.207 105.203 141.16 109.402 134.381 114.695C127.603 119.988 122.225 126.271 118.557 133.187C114.888 140.103 113 147.515 113 155L113 156H175.5L183.165 152.889L186 147.259L186.5 146V98H186Z" fill="#FF4D4D" fill-opacity="0.7"/>
<path d="M6 53.6651H96.0667H186.133L96.0667 90.998L6 53.6651ZM186.133 54.5237V144.898C186.133 147.745 184.778 150.475 182.365 152.488C179.952 154.501 176.679 155.632 173.267 155.632H18.8667C15.4542 155.632 12.1815 154.501 9.76856 152.488C7.35559 150.475 6 147.745 6 144.898V54.5237C6.00073 52.6318 6.60091 50.7737 7.73971 49.1376C8.87852 47.5015 10.5155 46.1456 12.4848 45.2072L89.6848 8.41334C91.6285 7.48715 93.8282 7 96.0667 7C98.3051 7 100.505 7.48715 102.449 8.41334L179.649 45.2072C181.618 46.1456 183.255 47.5015 184.394 49.1376C185.532 50.7737 186.133 52.6318 186.133 54.5237Z" stroke="#FF0000"/>
</g>
<defs>
<clipPath id="clip0_133_118">
<rect width="193" height="161" fill="white"/>
</clipPath>
</defs>
</svg>
