<svg width="38" height="27" viewBox="0 0 38 27" fill="none" xmlns="http://www.w3.org/2000/svg">
<g clip-path="url(#clip0_104_41)">
<path d="M37.1171 22.8269C36.8994 23.6335 36.4747 24.3688 35.8854 24.9597C35.296 25.5506 34.5626 25.9764 33.7581 26.1947C30.8126 27 18.9584 27 18.9584 27C18.9584 27 7.10347 26.9756 4.15805 26.1703C3.3535 25.952 2.62003 25.5262 2.03068 24.9353C1.44133 24.3444 1.01667 23.609 0.798988 22.8024C-0.09193 17.5556 -0.437533 9.56073 0.823451 4.52384C1.04116 3.71725 1.46583 2.9819 2.05518 2.39102C2.64452 1.80015 3.37798 1.37436 4.18252 1.15606C7.12793 0.35072 18.9825 0.350721 18.9825 0.350721C18.9825 0.350721 30.837 0.35072 33.7822 1.15606C34.5868 1.37434 35.3203 1.80011 35.9097 2.39099C36.499 2.98187 36.9237 3.71723 37.1414 4.52384C38.0811 9.77804 38.3707 17.7678 37.1171 22.8267V22.8269Z" fill="#FF0000"/>
<path d="M15 7.57895L24.8342 13.2895L15.0001 19L15 7.57895Z" fill="white"/>
</g>
<defs>
<clipPath id="clip0_104_41">
<rect width="37.9556" height="26.7556" fill="white" transform="matrix(1 0 0 -1 0 27)"/>
</clipPath>
</defs>
</svg>
